<svg width="215" height="36" viewBox="0 0 215 36" fill="none" xmlns="http://www.w3.org/2000/svg">
<g clip-path="url(#clip0_22213_391)">
<path d="M1.84619 29.2333C4.78971 28.012 9.20499 33.6303 7.48794 26.0577C5.77088 18.4852 8.46911 17.9966 11.9032 24.3478C15.3373 30.699 21.9602 43.89 16.3185 22.1493C10.6767 0.40866 19.0167 15.0738 21.7149 20.2036C24.4132 25.3335 34.2249 47.5541 26.3755 18.2409C18.5261 -11.0724 27.1114 5.78274 31.0361 16.2867C34.1758 24.6898 36.269 17.5895 36.9231 14.0882" stroke="url(#paint0_linear_22213_391)" stroke-width="3.69231" stroke-linecap="round" stroke-linejoin="round"/>
<path d="M49.2149 29V6.99384H51.5779V16.8892H63.3933V6.99384H65.7564V29H63.3933V19.1046H51.5779V29H49.2149ZM77.8473 29.3545C76.3704 29.3545 75.0313 29 73.8301 28.2911C72.6486 27.5625 71.7132 26.568 71.0239 25.3077C70.3347 24.0474 69.9901 22.6197 69.9901 21.0246C69.9901 19.4295 70.3249 18.0215 70.9944 16.8006C71.6639 15.56 72.5698 14.5852 73.7119 13.8763C74.8738 13.1674 76.1735 12.8129 77.611 12.8129C78.7532 12.8129 79.7673 13.0295 80.6535 13.4628C81.5593 13.8763 82.3273 14.4474 82.9575 15.176C83.5876 15.8849 84.0701 16.6923 84.4049 17.5982C84.7396 18.4843 84.907 19.4 84.907 20.3452C84.907 20.5422 84.8972 20.7686 84.8775 21.0246C84.8578 21.2609 84.8283 21.5071 84.7889 21.7631H71.4079V19.6954H83.5187L82.4553 20.5815C82.6326 19.4985 82.5046 18.5335 82.0713 17.6868C81.6578 16.8203 81.0572 16.1409 80.2695 15.6486C79.4818 15.1366 78.5956 14.8806 77.611 14.8806C76.6264 14.8806 75.7107 15.1366 74.8639 15.6486C74.0369 16.1606 73.387 16.8794 72.9144 17.8049C72.4418 18.7108 72.2547 19.7938 72.3532 21.0542C72.2547 22.3145 72.4516 23.4172 72.9439 24.3625C73.4559 25.288 74.1452 26.0068 75.0116 26.5188C75.8978 27.0308 76.843 27.2868 77.8473 27.2868C79.0092 27.2868 79.9839 27.0111 80.7716 26.4597C81.5593 25.9083 82.1993 25.2191 82.6916 24.392L84.5821 25.3963C84.267 26.1052 83.7846 26.7649 83.1347 27.3754C82.4849 27.9662 81.707 28.4486 80.8012 28.8228C79.915 29.1772 78.9304 29.3545 77.8473 29.3545ZM88.813 29V6.63938H91.0284V29H88.813ZM95.563 34.9077V13.1674H97.7784V16.712L97.4239 16.0917C98.0541 15.0874 98.891 14.2898 99.9347 13.6991C100.998 13.1083 102.209 12.8129 103.568 12.8129C105.065 12.8129 106.394 13.1772 107.556 13.9058C108.737 14.6148 109.663 15.5895 110.332 16.8302C111.021 18.0708 111.366 19.4886 111.366 21.0837C111.366 22.6591 111.021 24.0769 110.332 25.3372C109.663 26.5778 108.737 27.5625 107.556 28.2911C106.394 29 105.065 29.3545 103.568 29.3545C102.209 29.3545 100.978 29.0492 99.8756 28.4388C98.7926 27.8086 97.9753 26.9225 97.4239 25.7803L97.7784 25.4554V34.9077H95.563ZM103.45 27.1391C104.513 27.1391 105.458 26.8732 106.285 26.3415C107.132 25.8098 107.792 25.0911 108.265 24.1852C108.757 23.2597 109.003 22.2258 109.003 21.0837C109.003 19.9218 108.757 18.888 108.265 17.9822C107.792 17.0763 107.132 16.3575 106.285 15.8258C105.458 15.2942 104.513 15.0283 103.45 15.0283C102.386 15.0283 101.421 15.2942 100.555 15.8258C99.7083 16.3575 99.0289 17.0862 98.5169 18.0117C98.0246 18.9175 97.7784 19.9415 97.7784 21.0837C97.7784 22.2258 98.0246 23.2597 98.5169 24.1852C99.0289 25.0911 99.7083 25.8098 100.555 26.3415C101.421 26.8732 102.386 27.1391 103.45 27.1391ZM130.652 29.3545C129.096 29.3545 127.669 29.0788 126.369 28.5274C125.069 27.9563 123.937 27.1686 122.972 26.1643C122.027 25.1403 121.288 23.9391 120.757 22.5606C120.225 21.1822 119.959 19.6658 119.959 18.0117C119.959 16.3575 120.225 14.8412 120.757 13.4628C121.288 12.0843 122.027 10.8831 122.972 9.85908C123.937 8.83507 125.069 8.04738 126.369 7.496C127.669 6.92492 129.096 6.63938 130.652 6.63938C132.149 6.63938 133.488 6.90523 134.669 7.43692C135.871 7.96861 136.875 8.65784 137.682 9.50461C138.509 10.3317 139.1 11.208 139.455 12.1335L137.239 13.1083C136.688 11.8283 135.841 10.8043 134.699 10.0363C133.576 9.24861 132.228 8.85477 130.652 8.85477C129.037 8.85477 127.6 9.23877 126.34 10.0068C125.079 10.7748 124.095 11.848 123.386 13.2265C122.677 14.5852 122.322 16.1803 122.322 18.0117C122.322 19.8234 122.677 21.4185 123.386 22.7969C124.095 24.1754 125.079 25.2486 126.34 26.0166C127.6 26.7649 129.037 27.1391 130.652 27.1391C132.228 27.1391 133.576 26.7551 134.699 25.9871C135.841 25.2191 136.688 24.1951 137.239 22.9151L139.455 23.8898C139.1 24.7957 138.509 25.672 137.682 26.5188C136.875 27.3458 135.871 28.0252 134.669 28.5569C133.488 29.0886 132.149 29.3545 130.652 29.3545ZM150.28 29.3545C148.803 29.3545 147.464 29 146.263 28.2911C145.081 27.5625 144.146 26.568 143.457 25.3077C142.767 24.0474 142.423 22.6197 142.423 21.0246C142.423 19.4295 142.758 18.0215 143.427 16.8006C144.097 15.56 145.002 14.5852 146.145 13.8763C147.306 13.1674 148.606 12.8129 150.044 12.8129C151.186 12.8129 152.2 13.0295 153.086 13.4628C153.992 13.8763 154.76 14.4474 155.39 15.176C156.02 15.8849 156.503 16.6923 156.838 17.5982C157.172 18.4843 157.34 19.4 157.34 20.3452C157.34 20.5422 157.33 20.7686 157.31 21.0246C157.29 21.2609 157.261 21.5071 157.222 21.7631H143.841V19.6954H155.951L154.888 20.5815C155.065 19.4985 154.937 18.5335 154.504 17.6868C154.09 16.8203 153.49 16.1409 152.702 15.6486C151.914 15.1366 151.028 14.8806 150.044 14.8806C149.059 14.8806 148.143 15.1366 147.297 15.6486C146.47 16.1606 145.82 16.8794 145.347 17.8049C144.874 18.7108 144.687 19.7938 144.786 21.0542C144.687 22.3145 144.884 23.4172 145.377 24.3625C145.889 25.288 146.578 26.0068 147.444 26.5188C148.33 27.0308 149.276 27.2868 150.28 27.2868C151.442 27.2868 152.417 27.0111 153.204 26.4597C153.992 25.9083 154.632 25.2191 155.124 24.392L157.015 25.3963C156.7 26.1052 156.217 26.7649 155.567 27.3754C154.918 27.9662 154.14 28.4486 153.234 28.8228C152.348 29.1772 151.363 29.3545 150.28 29.3545ZM161.246 29V13.1674H163.461V16.2394L162.959 16.1212C163.353 15.0972 163.993 14.2898 164.879 13.6991C165.785 13.1083 166.828 12.8129 168.01 12.8129C169.132 12.8129 170.137 13.0689 171.023 13.5809C171.929 14.0929 172.638 14.8018 173.15 15.7077C173.681 16.5938 173.947 17.5982 173.947 18.7206V29H171.732V19.5772C171.732 18.6123 171.555 17.7951 171.2 17.1255C170.865 16.456 170.383 15.944 169.753 15.5895C169.142 15.2154 168.433 15.0283 167.626 15.0283C166.819 15.0283 166.1 15.2154 165.47 15.5895C164.84 15.944 164.347 16.4658 163.993 17.1551C163.638 17.8246 163.461 18.632 163.461 19.5772V29H161.246ZM184.234 29.1772C182.816 29.1772 181.723 28.7637 180.955 27.9366C180.187 27.1095 179.803 25.928 179.803 24.392V15.3828H176.879V13.1674H177.617C178.287 13.1674 178.818 12.9508 179.212 12.5175C179.606 12.0646 179.803 11.5034 179.803 10.8338V9.50461H182.018V13.1674H185.504V15.3828H182.018V24.392C182.018 24.9237 182.097 25.3963 182.255 25.8098C182.412 26.2037 182.678 26.5188 183.052 26.7551C183.446 26.9914 183.968 27.1095 184.618 27.1095C184.775 27.1095 184.962 27.0997 185.179 27.08C185.396 27.0603 185.583 27.0406 185.74 27.0209V29C185.504 29.0591 185.238 29.0985 184.943 29.1182C184.647 29.1575 184.411 29.1772 184.234 29.1772ZM196.261 29.3545C194.784 29.3545 193.445 29 192.244 28.2911C191.062 27.5625 190.127 26.568 189.437 25.3077C188.748 24.0474 188.404 22.6197 188.404 21.0246C188.404 19.4295 188.738 18.0215 189.408 16.8006C190.077 15.56 190.983 14.5852 192.125 13.8763C193.287 13.1674 194.587 12.8129 196.024 12.8129C197.167 12.8129 198.181 13.0295 199.067 13.4628C199.973 13.8763 200.741 14.4474 201.371 15.176C202.001 15.8849 202.484 16.6923 202.818 17.5982C203.153 18.4843 203.32 19.4 203.32 20.3452C203.32 20.5422 203.311 20.7686 203.291 21.0246C203.271 21.2609 203.242 21.5071 203.202 21.7631H189.821V19.6954H201.932L200.869 20.5815C201.046 19.4985 200.918 18.5335 200.485 17.6868C200.071 16.8203 199.471 16.1409 198.683 15.6486C197.895 15.1366 197.009 14.8806 196.024 14.8806C195.04 14.8806 194.124 15.1366 193.277 15.6486C192.45 16.1606 191.8 16.8794 191.328 17.8049C190.855 18.7108 190.668 19.7938 190.767 21.0542C190.668 22.3145 190.865 23.4172 191.357 24.3625C191.869 25.288 192.559 26.0068 193.425 26.5188C194.311 27.0308 195.256 27.2868 196.261 27.2868C197.423 27.2868 198.397 27.0111 199.185 26.4597C199.973 25.9083 200.613 25.2191 201.105 24.392L202.996 25.3963C202.68 26.1052 202.198 26.7649 201.548 27.3754C200.898 27.9662 200.12 28.4486 199.215 28.8228C198.328 29.1772 197.344 29.3545 196.261 29.3545ZM207.226 29V13.1674H209.442V15.7668L209.146 15.3828C209.521 14.6345 210.082 14.0437 210.83 13.6105C211.598 13.1772 212.524 12.9606 213.607 12.9606H214.611V15.176H213.223C212.081 15.176 211.165 15.5305 210.476 16.2394C209.786 16.9483 209.442 17.9526 209.442 19.2523V29H207.226Z" fill="#030712"/>
</g>
<defs>
<linearGradient id="paint0_linear_22213_391" x1="36.9231" y1="13.9615" x2="1.87082" y2="29.2743" gradientUnits="userSpaceOnUse">
<stop stop-color="#4A1EB9"/>
<stop offset="0.5" stop-color="#5925DC"/>
<stop offset="1" stop-color="#7959F9"/>
</linearGradient>
<clipPath id="clip0_22213_391">
<rect width="215" height="36" fill="white"/>
</clipPath>
</defs>
</svg>
